<?xml version="1.0" encoding="UTF-8" standalone="no"?>
<!-- Created with Inkscape (http://www.inkscape.org/) -->

<svg
   xmlns:dc="http://purl.org/dc/elements/1.1/"
   xmlns:cc="http://creativecommons.org/ns#"
   xmlns:rdf="http://www.w3.org/1999/02/22-rdf-syntax-ns#"
   xmlns:svg="http://www.w3.org/2000/svg"
   xmlns="http://www.w3.org/2000/svg"
   xmlns:sodipodi="http://sodipodi.sourceforge.net/DTD/sodipodi-0.dtd"
   xmlns:inkscape="http://www.inkscape.org/namespaces/inkscape"
   width="60.689999"
   height="33.710697"
   viewBox="0 0 60.689997 33.710697"
   id="svg2"
   version="1.1"
   inkscape:version="0.91 r13725"
   inkscape:export-filename="C:\Users\Usuario\OneDrive\IFSP-TSI\POO\Invasores do Espaço\InvasoresEpaciais\src\recursos\img\alien01.png"
   inkscape:export-xdpi="89.699997"
   inkscape:export-ydpi="89.699997"
   sodipodi:docname="alien.svg">
  <defs
     id="defs4" />
  <sodipodi:namedview
     id="base"
     pagecolor="#ffffff"
     bordercolor="#666666"
     borderopacity="1.0"
     inkscape:pageopacity="0.0"
     inkscape:pageshadow="2"
     inkscape:zoom="15.839192"
     inkscape:cx="27.329415"
     inkscape:cy="16.263155"
     inkscape:document-units="px"
     inkscape:current-layer="layer1"
     showgrid="false"
     inkscape:window-width="1366"
     inkscape:window-height="706"
     inkscape:window-x="-8"
     inkscape:window-y="-8"
     inkscape:window-maximized="1"
     units="px"
     fit-margin-top="0"
     fit-margin-left="0"
     fit-margin-right="0"
     fit-margin-bottom="0" />
  <metadata
     id="metadata7">
    <rdf:RDF>
      <cc:Work
         rdf:about="">
        <dc:format>image/svg+xml</dc:format>
        <dc:type
           rdf:resource="http://purl.org/dc/dcmitype/StillImage" />
        <dc:title></dc:title>
      </cc:Work>
    </rdf:RDF>
  </metadata>
  <g
     inkscape:label="Camada 1"
     inkscape:groupmode="layer"
     id="layer1"
     transform="translate(-1.704842,-1002.6044)">
    <ellipse
       style="opacity:1;fill:#527486;fill-opacity:1;fill-rule:nonzero;stroke:#ffffff;stroke-width:0.2;stroke-linecap:round;stroke-linejoin:round;stroke-miterlimit:4;stroke-dasharray:none;stroke-dashoffset:0;stroke-opacity:1"
       id="path4174"
       cx="32"
       cy="1023.2562"
       rx="30.195158"
       ry="12.65874" />
    <ellipse
       ry="9.45436"
       rx="24.732916"
       cy="1018.4583"
       cx="32"
       id="ellipse4178"
       style="opacity:1;fill:#667e90;fill-opacity:1;fill-rule:nonzero;stroke:none;stroke-width:5.09795046;stroke-linecap:round;stroke-linejoin:round;stroke-miterlimit:4;stroke-dasharray:none;stroke-dashoffset:0;stroke-opacity:0" />
    <path
       style="opacity:1;fill:#677486;fill-opacity:1;fill-rule:nonzero;stroke:none;stroke-width:0.2;stroke-linecap:round;stroke-linejoin:round;stroke-miterlimit:4;stroke-dasharray:none;stroke-dashoffset:0;stroke-opacity:1"
       id="path5422"
       sodipodi:type="arc"
       sodipodi:cx="32"
       sodipodi:cy="1016.9957"
       sodipodi:rx="16.446547"
       sodipodi:ry="5.6280417"
       sodipodi:start="0"
       sodipodi:end="6.0833626"
       sodipodi:open="true"
       d="m 48.446547,1016.9957 a 16.446547,5.6280417 0 0 1 -15.62529,5.621 16.446547,5.6280417 0 0 1 -17.185785,-5.0596 16.446547,5.6280417 0 0 1 13.908949,-6.1263 16.446547,5.6280417 0 0 1 18.574869,4.4478" />
    <g
       id="g5431">
      <path
         sodipodi:nodetypes="sssss"
         inkscape:connector-curvature="0"
         id="path4285"
         d="m 38.727511,1021.9607 c 10e-7,0.4502 -2.720479,0.5626 -6.465765,0.5626 -3.745285,0 -6.907708,-0.049 -6.907707,-0.4994 4e-6,-0.4501 3.036156,-1.9938 6.781438,-1.9938 3.745282,0 6.592031,1.4805 6.592034,1.9306 z"
         style="opacity:1;fill:#00ff00;fill-opacity:1;fill-rule:nonzero;stroke:none;stroke-width:8.06999969;stroke-linecap:round;stroke-linejoin:round;stroke-miterlimit:4;stroke-dasharray:none;stroke-dashoffset:0;stroke-opacity:0" />
      <path
         sodipodi:nodetypes="sssss"
         inkscape:connector-curvature="0"
         id="path4222"
         d="m 39.316586,1010.4038 c 0,3.0557 -3.044113,10.2754 -7.01013,10.2754 -3.966016,0 -7.352087,-7.2197 -7.352086,-10.2754 -1e-6,-3.0557 3.215091,-5.5329 7.181108,-5.5329 3.966016,0 7.181108,2.4772 7.181108,5.5329 z"
         style="opacity:1;fill:#00ff00;fill-opacity:1;fill-rule:nonzero;stroke:none;stroke-width:5.56945515;stroke-linecap:round;stroke-linejoin:round;stroke-miterlimit:4;stroke-dasharray:none;stroke-dashoffset:0;stroke-opacity:0" />
      <path
         style="opacity:1;fill:#000000;fill-opacity:1;fill-rule:nonzero;stroke:none;stroke-width:7.61055279;stroke-linecap:round;stroke-linejoin:round;stroke-miterlimit:4;stroke-dasharray:none;stroke-dashoffset:0;stroke-opacity:0"
         d="m 34.068688,1009.2284 c -0.584095,1.0204 -2.337527,3.7564 -1.177501,4.3774 1.160027,0.621 4.794232,-1.1081 5.378323,-2.1286 0.58409,-1.0204 0.117206,-2.351 -1.042818,-2.972 -1.160024,-0.621 -2.573909,-0.2972 -3.158003,0.7232 z"
         id="path4245"
         inkscape:connector-curvature="0"
         sodipodi:nodetypes="sssss" />
      <path
         sodipodi:nodetypes="sssss"
         inkscape:connector-curvature="0"
         id="path4261"
         d="m 30.202268,1009.2284 c 0.584095,1.0204 2.337526,3.7564 1.177501,4.3774 -1.160026,0.621 -4.794231,-1.1081 -5.378323,-2.1286 -0.58409,-1.0204 -0.117206,-2.351 1.042819,-2.972 1.160022,-0.621 2.573909,-0.2972 3.158002,0.7232 z"
         style="opacity:1;fill:#000000;fill-opacity:1;fill-rule:nonzero;stroke:none;stroke-width:7.61055279;stroke-linecap:round;stroke-linejoin:round;stroke-miterlimit:4;stroke-dasharray:none;stroke-dashoffset:0;stroke-opacity:0" />
      <ellipse
         ry="0.24931753"
         rx="1.720291"
         cy="1017.9359"
         cx="32.135479"
         id="path4263"
         style="opacity:1;fill:#000000;fill-opacity:1;fill-rule:nonzero;stroke:none;stroke-width:8.06999969;stroke-linecap:round;stroke-linejoin:round;stroke-miterlimit:4;stroke-dasharray:none;stroke-dashoffset:0;stroke-opacity:0" />
      <ellipse
         ry="0.17452228"
         rx="0.27424932"
         cy="1015.6172"
         cx="31.686707"
         id="path4269"
         style="opacity:1;fill:#000000;fill-opacity:1;fill-rule:nonzero;stroke:none;stroke-width:8.06999969;stroke-linecap:round;stroke-linejoin:round;stroke-miterlimit:4;stroke-dasharray:none;stroke-dashoffset:0;stroke-opacity:0" />
      <ellipse
         ry="0.17452228"
         rx="0.27424932"
         cy="1015.6172"
         cx="32.584248"
         id="ellipse4273"
         style="opacity:1;fill:#000000;fill-opacity:1;fill-rule:nonzero;stroke:none;stroke-width:8.06999969;stroke-linecap:round;stroke-linejoin:round;stroke-miterlimit:4;stroke-dasharray:none;stroke-dashoffset:0;stroke-opacity:0" />
    </g>
    <path
       style="opacity:1;fill:#c2f3fd;fill-opacity:0.39215686;fill-rule:nonzero;stroke:none;stroke-width:3.58787704;stroke-linecap:round;stroke-linejoin:round;stroke-miterlimit:4;stroke-dasharray:none;stroke-dashoffset:0;stroke-opacity:0"
       d="m 49.542214,1017.3219 c -1e-5,3.6748 -7.79327,6.6538 -17.40674,6.6538 -9.613473,0 -17.406723,-2.979 -17.406733,-6.6538 -10e-6,-3.6749 7.79325,-13.9775 17.406733,-13.9775 9.61348,0 17.40675,10.3026 17.40674,13.9775 z"
       id="ellipse4180"
       inkscape:connector-curvature="0"
       sodipodi:nodetypes="sssss" />
    <ellipse
       ry="12.65874"
       rx="30.295"
       cy="1023.6564"
       cx="32.099842"
       id="ellipse4150"
       style="opacity:1;fill:#000000;fill-opacity:0;fill-rule:nonzero;stroke:none;stroke-width:6.51787138;stroke-linecap:round;stroke-linejoin:round;stroke-miterlimit:4;stroke-dasharray:none;stroke-dashoffset:0;stroke-opacity:0" />
    <g
       id="g5379"
       transform="translate(-0.3044078,1.1364216)">
      <circle
         r="1.6414979"
         cy="1030.2214"
         cx="46.561531"
         id="circle4200"
         style="opacity:1;fill:#ffffff;fill-opacity:1;fill-rule:nonzero;stroke:none;stroke-width:7.08661413;stroke-linecap:round;stroke-linejoin:round;stroke-miterlimit:4;stroke-dasharray:none;stroke-dashoffset:0;stroke-opacity:0" />
      <circle
         style="opacity:1;fill:#aad8e4;fill-opacity:1;fill-rule:nonzero;stroke:none;stroke-width:7.08661413;stroke-linecap:round;stroke-linejoin:round;stroke-miterlimit:4;stroke-dasharray:none;stroke-dashoffset:0;stroke-opacity:0"
         id="circle5366"
         cx="46.561531"
         cy="1030.2214"
         r="1.4520942" />
      <path
         sodipodi:nodetypes="sssss"
         inkscape:connector-curvature="0"
         id="path5376"
         d="m 45.828507,1029.8057 c -4e-6,0.2836 0.343152,0.4826 0.107814,0.4826 -0.235338,0 -0.426118,-0.2299 -0.426122,-0.5134 -6e-6,-0.2836 0.190777,-0.5134 0.426122,-0.5134 0.235345,0 -0.107807,0.2607 -0.107814,0.5442 z"
         style="opacity:1;fill:#ffffff;fill-opacity:1;fill-rule:nonzero;stroke:none;stroke-width:8.06999969;stroke-linecap:round;stroke-linejoin:round;stroke-miterlimit:4;stroke-dasharray:none;stroke-dashoffset:0;stroke-opacity:1" />
    </g>
    <g
       id="g5384"
       transform="translate(-14.962884,3.0304576)">
      <circle
         style="opacity:1;fill:#ffffff;fill-opacity:1;fill-rule:nonzero;stroke:none;stroke-width:7.08661413;stroke-linecap:round;stroke-linejoin:round;stroke-miterlimit:4;stroke-dasharray:none;stroke-dashoffset:0;stroke-opacity:0"
         id="circle5386"
         cx="46.561531"
         cy="1030.2214"
         r="1.6414979" />
      <circle
         r="1.4520942"
         cy="1030.2214"
         cx="46.561531"
         id="circle5388"
         style="opacity:1;fill:#aad8e4;fill-opacity:1;fill-rule:nonzero;stroke:none;stroke-width:7.08661413;stroke-linecap:round;stroke-linejoin:round;stroke-miterlimit:4;stroke-dasharray:none;stroke-dashoffset:0;stroke-opacity:0" />
      <path
         style="opacity:1;fill:#ffffff;fill-opacity:1;fill-rule:nonzero;stroke:none;stroke-width:8.06999969;stroke-linecap:round;stroke-linejoin:round;stroke-miterlimit:4;stroke-dasharray:none;stroke-dashoffset:0;stroke-opacity:1"
         d="m 45.828507,1029.8057 c -4e-6,0.2836 0.343152,0.4826 0.107814,0.4826 -0.235338,0 -0.426118,-0.2299 -0.426122,-0.5134 -6e-6,-0.2836 0.190777,-0.5134 0.426122,-0.5134 0.235345,0 -0.107807,0.2607 -0.107814,0.5442 z"
         id="path5390"
         inkscape:connector-curvature="0"
         sodipodi:nodetypes="sssss" />
    </g>
    <g
       transform="translate(-29.621358,0.63134534)"
       id="g5392">
      <circle
         r="1.6414979"
         cy="1030.2214"
         cx="46.561531"
         id="circle5394"
         style="opacity:1;fill:#ffffff;fill-opacity:1;fill-rule:nonzero;stroke:none;stroke-width:7.08661413;stroke-linecap:round;stroke-linejoin:round;stroke-miterlimit:4;stroke-dasharray:none;stroke-dashoffset:0;stroke-opacity:0" />
      <circle
         style="opacity:1;fill:#aad8e4;fill-opacity:1;fill-rule:nonzero;stroke:none;stroke-width:7.08661413;stroke-linecap:round;stroke-linejoin:round;stroke-miterlimit:4;stroke-dasharray:none;stroke-dashoffset:0;stroke-opacity:0"
         id="circle5396"
         cx="46.561531"
         cy="1030.2214"
         r="1.4520942" />
      <path
         sodipodi:nodetypes="sssss"
         inkscape:connector-curvature="0"
         id="path5398"
         d="m 45.828507,1029.8057 c -4e-6,0.2836 0.343152,0.4826 0.107814,0.4826 -0.235338,0 -0.426118,-0.2299 -0.426122,-0.5134 -6e-6,-0.2836 0.190777,-0.5134 0.426122,-0.5134 0.235345,0 -0.107807,0.2607 -0.107814,0.5442 z"
         style="opacity:1;fill:#ffffff;fill-opacity:1;fill-rule:nonzero;stroke:none;stroke-width:8.06999969;stroke-linecap:round;stroke-linejoin:round;stroke-miterlimit:4;stroke-dasharray:none;stroke-dashoffset:0;stroke-opacity:1" />
    </g>
    <circle
       r="1.6414979"
       cy="1024.2867"
       cx="58.9156"
       id="circle5402"
       style="opacity:1;fill:#ffffff;fill-opacity:1;fill-rule:nonzero;stroke:none;stroke-width:7.08661413;stroke-linecap:round;stroke-linejoin:round;stroke-miterlimit:4;stroke-dasharray:none;stroke-dashoffset:0;stroke-opacity:0" />
    <circle
       style="opacity:1;fill:#aad8e4;fill-opacity:1;fill-rule:nonzero;stroke:none;stroke-width:7.08661413;stroke-linecap:round;stroke-linejoin:round;stroke-miterlimit:4;stroke-dasharray:none;stroke-dashoffset:0;stroke-opacity:0"
       id="circle5404"
       cx="58.9156"
       cy="1024.2867"
       r="1.4520942" />
    <path
       sodipodi:nodetypes="sssss"
       inkscape:connector-curvature="0"
       id="path5406"
       d="m 58.182577,1023.8711 c -4e-6,0.2836 0.343152,0.4826 0.107814,0.4826 -0.235338,0 -0.426118,-0.2299 -0.426122,-0.5134 -6e-6,-0.2836 0.190777,-0.5134 0.426122,-0.5134 0.235345,0 -0.107807,0.2607 -0.107814,0.5442 z"
       style="opacity:1;fill:#ffffff;fill-opacity:1;fill-rule:nonzero;stroke:none;stroke-width:8.06999969;stroke-linecap:round;stroke-linejoin:round;stroke-miterlimit:4;stroke-dasharray:none;stroke-dashoffset:0;stroke-opacity:1" />
    <g
       transform="translate(-42.279832,-5.9346462)"
       id="g5408">
      <circle
         r="1.6414979"
         cy="1030.2214"
         cx="46.561531"
         id="circle5410"
         style="opacity:1;fill:#ffffff;fill-opacity:1;fill-rule:nonzero;stroke:none;stroke-width:7.08661413;stroke-linecap:round;stroke-linejoin:round;stroke-miterlimit:4;stroke-dasharray:none;stroke-dashoffset:0;stroke-opacity:0" />
      <circle
         style="opacity:1;fill:#aad8e4;fill-opacity:1;fill-rule:nonzero;stroke:none;stroke-width:7.08661413;stroke-linecap:round;stroke-linejoin:round;stroke-miterlimit:4;stroke-dasharray:none;stroke-dashoffset:0;stroke-opacity:0"
         id="circle5412"
         cx="46.561531"
         cy="1030.2214"
         r="1.4520942" />
      <path
         sodipodi:nodetypes="sssss"
         inkscape:connector-curvature="0"
         id="path5414"
         d="m 45.828507,1029.8057 c -4e-6,0.2836 0.343152,0.4826 0.107814,0.4826 -0.235338,0 -0.426118,-0.2299 -0.426122,-0.5134 -6e-6,-0.2836 0.190777,-0.5134 0.426122,-0.5134 0.235345,0 -0.107807,0.2607 -0.107814,0.5442 z"
         style="opacity:1;fill:#ffffff;fill-opacity:1;fill-rule:nonzero;stroke:none;stroke-width:8.06999969;stroke-linecap:round;stroke-linejoin:round;stroke-miterlimit:4;stroke-dasharray:none;stroke-dashoffset:0;stroke-opacity:1" />
    </g>
    <path
       transform="matrix(0.86033257,0.50973314,-0.50973314,0.86033257,0,0)"
       style="opacity:1;fill:#ffffff;fill-opacity:1;fill-rule:nonzero;stroke:none;stroke-width:8.06999969;stroke-linecap:round;stroke-linejoin:round;stroke-miterlimit:4;stroke-dasharray:none;stroke-dashoffset:0;stroke-opacity:1"
       d="m 532.28185,861.59293 c 0,2.44078 0.90029,4.46505 0.37727,4.46504 -0.52302,1e-5 -0.94702,-1.97864 -0.94702,-4.41942 0,-2.44078 0.424,-4.41943 0.94702,-4.41942 0.52302,-10e-6 -0.37727,1.93301 -0.37727,4.3738 z"
       id="path5416"
       inkscape:connector-curvature="0"
       sodipodi:nodetypes="scscs" />
  </g>
</svg>
